HIERARCHY
ROOT Hips
{
	OFFSET -3.958830 18.904000 13.208200
	CHANNELS 6 Xposition Yposition Zposition Zrotation Yrotation Xrotation 
	JOINT LHipJoint
	{
		OFFSET 0.000000 0.000000 0.000000
		CHANNELS 3 Zrotation Yrotation Xrotation
		JOINT LeftUpLeg
		{
			OFFSET 1.800000 -1.400000 0.085000
			CHANNELS 3 Zrotation Yrotation Xrotation
			JOINT LeftLeg
			{
				OFFSET 2.215000 -6.000000 0.000000
				CHANNELS 3 Zrotation Yrotation Xrotation
				JOINT LeftFoot
				{
					OFFSET 2.500000 -6.900000 0.000000
					CHANNELS 3 Zrotation Yrotation Xrotation
					JOINT LeftToeBase
					{
						OFFSET 0.200000 -0.500000 1.950000
						CHANNELS 3 Zrotation Yrotation Xrotation
						End Site
						{
							OFFSET 0.000000 0.000000 0.000000
						}
					}
				}
			}
		}
	}
	JOINT RHipJoint
	{
		OFFSET 0.000000 0.000000 0.000000
		CHANNELS 3 Zrotation Yrotation Xrotation
		JOINT RightUpLeg
		{
			OFFSET -1.800000 -1.400000 0.085000
			CHANNELS 3 Zrotation Yrotation Xrotation
			JOINT RightLeg
			{
				OFFSET -2.215000 -6.000000 0.000000
				CHANNELS 3 Zrotation Yrotation Xrotation
				JOINT RightFoot
				{
					OFFSET -2.500000 -6.900000 0.000000
					CHANNELS 3 Zrotation Yrotation Xrotation
					JOINT RightToeBase
					{
						OFFSET -0.200000 -0.500000 1.950000
						CHANNELS 3 Zrotation Yrotation Xrotation
						End Site
						{
							OFFSET 0.000000 0.000000 0.000000
						}
					}
				}
			}
		}
	}
	JOINT LowerBack
	{
		OFFSET 0.000000 0.000000 0.000000
		CHANNELS 3 Zrotation Yrotation Xrotation
		JOINT Spine
		{
			OFFSET -0.087000 1.940000 -0.288900
			CHANNELS 3 Zrotation Yrotation Xrotation
			JOINT Spine1
			{
				OFFSET 0.000000 1.950000 0.060000
				CHANNELS 3 Zrotation Yrotation Xrotation
				JOINT Neck
				{
					OFFSET 0.000000 0.000000 0.000000
					CHANNELS 3 Zrotation Yrotation Xrotation
					JOINT Neck1
					{
						OFFSET 0.000000 1.600000 0.340000
						CHANNELS 3 Zrotation Yrotation Xrotation
						JOINT Head
						{
							OFFSET 0.000000 1.667000 -0.240000
							CHANNELS 3 Zrotation Yrotation Xrotation
							End Site
							{
								OFFSET 0.000000 0.000000 0.000000
							}
						}
					}
				}
				JOINT LeftShoulder
				{
					OFFSET 0.000000 0.000000 0.000000
					CHANNELS 3 Zrotation Yrotation Xrotation
					JOINT LeftArm
					{
						OFFSET 2.700000 1.550000 -0.730000
						CHANNELS 3 Zrotation Yrotation Xrotation
						JOINT LeftForeArm
						{
							OFFSET 5.450000 0.000000 0.000000
							CHANNELS 3 Zrotation Yrotation Xrotation
							JOINT LeftHand
							{
								OFFSET 3.450000 0.000000 0.000000
								CHANNELS 3 Zrotation Yrotation Xrotation
								JOINT LeftHandIndex1
								{
									OFFSET 0.750000 0.000000 0.000000
									CHANNELS 3 Zrotation Yrotation Xrotation
									End Site
									{
										OFFSET 0.000000 0.000000 0.000000
									}
								}
							}
						}
					}
				}
				JOINT RightShoulder
				{
					OFFSET 0.000000 0.000000 0.000000
					CHANNELS 3 Zrotation Yrotation Xrotation
					JOINT RightArm
					{
						OFFSET -2.700000 1.550000 -0.730000
						CHANNELS 3 Zrotation Yrotation Xrotation
						JOINT RightForeArm
						{
							OFFSET -5.450000 0.000000 0.000000
							CHANNELS 3 Zrotation Yrotation Xrotation
							JOINT RightHand
							{
								OFFSET -3.450000 0.000000 0.000000
								CHANNELS 3 Zrotation Yrotation Xrotation
								JOINT RightHandIndex1
								{
									OFFSET -0.750000 0.000000 0.000000
									CHANNELS 3 Zrotation Yrotation Xrotation
									End Site
									{
										OFFSET 0.000000 0.000000 0.000000
									}
								}
							}
						}
					}
				}
			}
		}
	}
}
MOTION
Frames: 11
Frame Time: 0.016667
-0.066430 17.455390 0.014070 -6.128516 10.674550 9.673015 -15.068224 12.909945 2.223764 1.084091 -0.989643 -9.220228 -1.244939 4.270018 12.506595 -0.595899 4.386723 3.676411 -0.037250 -0.521940 -0.210270 18.575443 -10.126451 3.662640 0.531481 5.821863 -37.952735 4.990788 -3.494869 13.223408 0.636310 -2.576150 3.839445 0.033470 1.280210 0.406480 -4.336343 -1.242841 -6.850277 16.895562 -5.391867 1.626326 -6.019366 -5.055074 11.883596 1.842778 2.662824 -7.475935 3.609057 -0.203809 24.159742 -6.095260 2.266640 14.702000 1.243009 1.996764 1.839990 -4.711103 -4.867023 1.715133 88.962621 -55.104053 -47.448252 -4.548555 2.509276 -0.254020 1.096580 -0.921990 0.407290 -4.770745 -7.247502 3.812715 25.894623 -10.243353 -9.826852 -22.465769 49.973555 -8.568805 1.433594 -2.442903 -0.468960 0.209480 0.199950 -0.049090 
-0.019490 17.353240 0.036710 -5.684993 9.074510 10.409224 -15.133933 12.871802 2.182523 0.959510 -0.861171 -8.611925 -1.806335 4.485415 12.540212 -0.613402 4.600743 3.669828 -0.061240 -0.513150 -0.267430 18.541798 -9.955163 3.690456 0.340207 5.825513 -37.268005 5.909593 -2.641280 7.108698 0.734559 -2.421805 3.939751 0.108850 1.427050 0.405900 -4.165247 -1.385143 -6.790609 15.222621 -4.697550 0.458184 -4.855708 -4.772847 11.814333 1.701594 2.711146 -6.958591 3.797478 0.183258 22.416653 -6.517290 2.582130 15.164140 1.879567 2.304950 1.050806 -3.568419 -8.027193 2.163671 83.069043 -55.638954 -42.654496 -4.664906 2.571992 -0.369820 1.230160 -1.033420 0.443470 -4.952079 -7.485944 3.459223 23.522934 -9.010057 -8.208485 -21.381945 48.005810 -7.832270 1.396026 -2.549487 -0.527550 0.268240 0.215760 -0.020890 
0.014250 17.265530 0.034410 -5.706921 7.193835 10.487182 -15.162511 12.847848 2.188727 1.565054 -0.802924 -7.810023 -3.341512 4.952223 12.528429 -0.581720 4.755636 3.566348 -0.002900 -0.466790 -0.193070 18.525738 -9.816335 3.767175 1.009976 6.130534 -37.114414 6.191375 -2.222622 4.140002 0.693335 -2.268545 3.967022 0.110650 1.330820 0.429840 -4.077040 -1.514744 -6.882240 14.211484 -4.130349 0.825666 -3.965675 -4.367840 11.484374 1.740688 3.137172 -7.098952 4.428894 0.120702 22.904673 -6.646870 2.939200 14.038640 1.598186 1.120463 0.854430 -1.807667 -9.071751 1.962425 79.783741 -56.316730 -40.392724 -4.585095 2.597855 -0.308460 1.170740 -0.961480 0.418060 -4.740304 -6.476483 3.726593 22.284685 -8.823371 -7.742336 -21.291062 46.789613 -7.410808 1.410489 -2.508008 -0.486700 0.227920 0.198750 -0.053820 
0.055470 17.175710 0.048550 -5.571859 5.228589 10.782698 -15.202366 12.803209 2.211861 1.776199 -0.819833 -7.551165 -5.228031 5.575570 13.132795 -0.578198 5.027373 3.468108 0.021740 -0.433690 -0.161860 18.501510 -9.683866 3.816747 1.050761 6.364147 -37.355825 7.526549 -2.185599 3.019958 0.673586 -2.296954 3.945942 0.150980 1.339210 0.440980 -3.964504 -1.626727 -6.912938 12.864482 -3.947751 0.843103 -2.866912 -4.368791 11.073827 1.798680 3.490105 -6.826915 5.057486 0.756738 22.489919 -6.978020 3.897770 13.152640 0.389084 0.781933 0.867508 -0.867824 -8.433390 2.259354 83.433100 -56.748794 -43.261101 -4.614206 2.482887 -0.298210 1.192300 -0.952080 0.418980 -3.490471 -6.238346 3.144077 20.588485 -6.466155 -6.684089 -22.087284 45.090283 -7.353622 1.402674 -2.471282 -0.504790 0.253080 0.196920 -0.070850 
0.102220 17.093790 0.066200 -5.872101 3.574767 10.738554 -15.219402 12.803670 2.261707 2.184754 -0.934989 -7.467008 -7.019216 6.253549 14.015150 -0.501447 5.290473 3.380694 0.020730 -0.451970 -0.123480 18.484341 -9.603456 3.858244 1.607506 6.702414 -37.725576 8.522752 -2.435207 4.113928 0.662810 -2.322333 3.933190 0.129530 1.325410 0.452120 -3.900740 -1.754572 -6.988764 12.462550 -4.144246 1.671864 -1.937018 -4.640029 9.664550 1.937103 3.738021 -6.472203 5.477097 1.400514 22.401907 -7.502120 5.396500 13.696570 -1.428755 0.663899 0.889017 -0.148252 -7.726410 2.763896 87.498709 -58.084365 -47.057895 -4.597226 2.340956 -0.291760 1.196800 -0.939650 0.416950 -1.847307 -6.207209 2.411277 19.028646 -3.904790 -5.724493 -23.147662 43.729155 -7.313274 1.449156 -2.447654 -0.503720 0.226740 0.173510 -0.086550 
0.168390 17.023380 0.092970 -6.424485 2.451114 10.699830 -15.200449 12.810280 2.323132 2.295734 -1.087652 -7.709901 -8.149108 6.750845 15.144690 -0.443358 5.451126 3.285052 0.046910 -0.429620 -0.071050 18.492252 -9.597756 3.907697 2.504208 7.135232 -38.411459 8.704905 -2.949122 7.303398 0.623785 -2.359122 3.885445 0.114740 1.257740 0.487410 -3.928102 -1.778266 -7.088105 13.514603 -4.480558 2.985077 -2.180077 -4.799890 7.981029 2.340868 3.803089 -6.315244 5.693969 1.905000 21.717743 -8.201240 6.858740 13.232900 -3.402900 0.776910 0.956064 -0.339875 -7.515463 3.416076 93.523584 -58.643235 -52.805896 -4.595177 2.234499 -0.266570 1.172370 -0.883960 0.399300 -0.702120 -6.385388 2.050226 20.309604 -3.061513 -5.916249 -25.929352 44.258014 -8.217938 1.467097 -2.422327 -0.463620 0.168010 0.151220 -0.106410 
0.223410 16.959010 0.124170 -6.558255 0.731194 10.898577 -15.201580 12.801739 2.441037 2.221907 -1.399975 -8.684517 -9.968882 7.588375 16.912403 -0.311983 5.697089 3.171028 0.002050 -0.494890 -0.052720 18.475369 -9.543273 4.015992 3.398668 7.769496 -39.612939 8.761050 -3.653224 11.626729 0.581030 -2.475002 3.837681 0.023280 1.192010 0.492340 -3.877982 -1.859341 -7.279885 13.663506 -4.413763 4.810881 -2.295760 -4.380717 6.601053 2.763337 3.897449 -7.314088 6.062142 1.981692 20.878061 -8.926050 8.455240 13.731500 -4.586501 0.284061 2.157119 -2.248806 -5.539770 3.997928 103.525725 -58.722280 -64.538981 -4.644313 2.189654 -0.222830 1.127510 -0.831240 0.370890 -0.529676 -5.679132 2.608368 24.976453 -4.485247 -7.691167 -30.853732 46.261857 -10.343495 1.478888 -2.315450 -0.437850 0.111650 0.143630 -0.124060 
0.264240 16.915300 0.149170 -6.202261 -2.002419 10.727373 -15.202876 12.815515 2.592096 1.616689 -1.764236 -9.794637 -11.528695 8.564206 19.524275 -0.195111 6.027661 3.010785 -0.036210 -0.547010 -0.068360 18.457183 -9.452563 4.127190 3.768873 8.351759 -40.461995 9.246747 -4.536027 16.304118 0.487966 -2.747278 3.725568 -0.052300 1.120080 0.451470 -3.818911 -2.067197 -7.512437 13.480251 -4.386804 7.453187 -2.783621 -3.759704 5.299125 2.667063 3.159024 -8.312900 4.927027 2.879212 21.029599 -7.837040 9.259680 13.418890 -4.545119 0.598980 3.550401 -7.202038 -4.239822 4.439783 115.528785 -56.925894 -79.704804 -4.717010 2.532513 -0.116360 1.023250 -0.767040 0.346510 -0.533201 -5.120052 2.900825 31.337200 -5.110636 -10.017619 -37.286082 49.515632 -13.605023 1.450779 -2.116901 -0.441680 0.108440 0.158830 -0.139920 
0.319160 16.915810 0.141690 -5.245833 -5.103320 9.376893 -15.216476 12.873649 2.860828 0.630532 -2.578758 -11.511873 -12.868190 9.997633 24.381713 -0.021228 6.636219 2.723591 -0.031170 -0.584510 0.012700 18.400675 -9.392265 4.187226 3.356112 8.573876 -40.336314 9.995298 -5.622419 21.061802 0.317071 -3.157790 3.548865 -0.141700 0.945490 0.396260 -3.673252 -2.391030 -7.880333 12.349414 -4.536383 12.540059 -3.373128 -3.043291 3.183137 2.691929 2.546324 -9.341052 3.847774 3.212032 22.685497 -7.566110 10.349340 11.611050 -5.966090 -0.093162 4.508599 -11.178012 -1.925729 3.658587 126.313354 -56.183215 -95.398552 -4.614302 2.826384 0.073480 0.841580 -0.634750 0.294360 0.734151 -3.402498 3.571012 37.757037 -5.349512 -12.436925 -45.116270 52.422879 -18.021747 1.421174 -1.805651 -0.437360 0.092100 0.141030 -0.202800 
0.385810 16.921130 0.122640 -3.482818 -8.327567 6.998958 -15.315202 12.948831 3.232034 -0.825169 -3.839652 -13.314137 -14.100523 11.782295 30.401608 0.210588 7.575401 2.327359 0.032550 -0.536980 0.115030 18.275209 -9.271998 4.080766 1.947794 8.242421 -39.099285 11.149650 -6.891121 25.370112 0.089356 -3.713988 3.317791 -0.177110 0.770870 0.358860 -3.308149 -2.985529 -8.187169 8.943515 -4.251689 18.624791 -1.817345 -2.319425 1.917515 2.310672 1.297382 -9.932116 1.497198 3.771014 24.547729 -7.288140 10.779550 6.688280 -7.441430 -0.543786 5.331389 -17.657993 -0.981933 2.386885 136.256775 -55.093312 -111.284707 -4.446588 3.017471 0.270430 0.654350 -0.476180 0.256940 3.198134 -1.344521 3.681045 41.152224 -4.571526 -14.170624 -52.295797 54.307907 -22.480419 1.370741 -1.471837 -0.415190 0.112600 0.114290 -0.255160 
0.446220 16.900860 0.112460 -1.956786 -10.985790 5.574978 -15.459765 12.782257 3.674288 -1.604869 -6.083792 -17.407988 -15.418949 14.042766 37.589005 0.504240 8.865998 1.834874 0.088450 -0.481030 0.199910 18.168047 -9.016692 3.935518 1.005975 8.154412 -38.503592 11.531924 -7.873296 29.163241 -0.094388 -4.246347 3.100384 -0.179130 0.638600 0.329140 -2.940698 -3.457519 -8.399836 5.070950 -3.428056 22.636479 0.750168 -1.635397 2.101525 1.874788 0.505076 -10.286884 0.019656 3.956333 24.998579 -7.416120 11.076230 1.784410 -8.831495 -1.321083 6.222565 -25.004457 -0.413756 0.777489 144.727491 -53.599942 -126.325031 -4.293221 3.149866 0.394660 0.525170 -0.368150 0.226590 5.694302 0.661671 3.634495 44.485542 -2.898115 -15.512465 -58.145280 53.943496 -26.137305 1.368317 -1.263277 -0.401550 0.124010 0.085380 -0.296140 
